<svg width="438" height="80" viewBox="0 0 438 80" fill="none" xmlns="http://www.w3.org/2000/svg">
<path d="M119.6 66.7008C114.2 66.7008 109.6 65.5674 105.8 63.3008C102.067 60.9674 99.2 57.8341 97.2 53.9008C95.2 49.9008 94.2 45.3008 94.2 40.1008C94.2 34.9675 95.1666 30.3674 97.1 26.3008C99.0333 22.2341 101.9 19.0674 105.7 16.8008C109.5 14.4674 114.133 13.3008 119.6 13.3008C125.933 13.3008 131.167 14.9008 135.3 18.1008C139.433 21.3675 141.967 25.9341 142.9 31.8008H130.2C129.667 29.3341 128.467 27.4008 126.6 26.0008C124.733 24.6008 122.3 23.9008 119.3 23.9008C116.767 23.9008 114.5 24.5008 112.5 25.7008C110.5 26.9008 108.933 28.7008 107.8 31.1008C106.667 33.5008 106.1 36.5008 106.1 40.1008C106.1 43.7008 106.633 46.6675 107.7 49.0008C108.833 51.4008 110.4 53.2008 112.4 54.4008C114.4 55.6008 116.7 56.2008 119.3 56.2008C122.3 56.2008 124.733 55.5674 126.6 54.3008C128.467 53.1008 129.667 51.3341 130.2 49.0008H142.9C141.967 54.5341 139.433 58.8675 135.3 62.0008C131.167 65.1341 125.933 66.7008 119.6 66.7008Z" fill="black"/>
<path d="M146.7 65.8008V29.2008H158.1V34.9008C159.367 33.0341 160.967 31.4675 162.9 30.2008C164.9 28.9341 167.167 28.3008 169.7 28.3008V40.4008H166.5C163.7 40.4008 161.6 41.0341 160.2 42.3008C158.8 43.5674 158.1 45.6675 158.1 48.6008V65.8008H146.7Z" fill="black"/>
<path fill-rule="evenodd" clip-rule="evenodd" d="M190.1 66.7008C186.567 66.7008 183.333 65.9341 180.4 64.4008C177.467 62.9341 175.133 60.7675 173.4 57.9008C171.667 55.0341 170.8 51.5675 170.8 47.5008C170.8 43.6341 171.667 40.2675 173.4 37.4008C175.067 34.5341 177.366 32.3008 180.3 30.7008C183.233 29.1008 186.566 28.3008 190.3 28.3008C194.233 28.3008 197.633 29.1341 200.5 30.8008C203.433 32.4674 205.7 34.7341 207.3 37.6008C208.9 40.4675 209.7 43.7675 209.7 47.5008C209.7 51.3675 208.866 54.7675 207.2 57.7008C205.466 60.5675 203.133 62.7674 200.2 64.3008C197.2 65.9008 193.833 66.7008 190.1 66.7008ZM190.2 56.8008C191.8 56.8008 193.2 56.4008 194.4 55.6008C195.6 54.8675 196.533 53.7674 197.2 52.3008C197.866 50.9008 198.2 49.2675 198.2 47.4008C198.2 45.4008 197.833 43.7341 197.1 42.4008C196.367 41.0675 195.4 40.0341 194.2 39.3008C193 38.6341 191.666 38.3008 190.2 38.3008C188.666 38.3008 187.3 38.6675 186.1 39.4008C184.9 40.1341 183.966 41.2008 183.3 42.6008C182.566 43.9341 182.2 45.5675 182.2 47.5008C182.2 49.3675 182.533 51.0008 183.2 52.4008C183.866 53.8008 184.8 54.8675 186 55.6008C187.2 56.4008 188.6 56.8008 190.2 56.8008Z" fill="black"/>
<path d="M218.2 65.8011L208.2 29.2012H219.4L224.6 55.4012L230.8 29.2012H242.6L248.8 55.3011L253.9 29.2012H264.5L254.6 65.8011H242.2L236.4 42.1012L230.5 65.8011H218.2Z" fill="black"/>
<path fill-rule="evenodd" clip-rule="evenodd" d="M280 66.7012C276.533 66.7012 273.567 65.8012 271.1 64.0012C268.633 62.2678 266.767 59.9345 265.5 57.0012C264.167 54.0678 263.5 50.8678 263.5 47.4012C263.5 44.0012 264.167 40.8345 265.5 37.9012C266.833 35.0345 268.733 32.7345 271.2 31.0012C273.667 29.2012 276.6 28.3011 280 28.3011C282.267 28.3011 284.433 28.8011 286.5 29.8011C288.567 30.7345 290.233 32.1345 291.5 34.0012V14.2012H302.9V65.8011H291.5V60.8011C290.233 62.8011 288.6 64.3011 286.6 65.3011C284.6 66.2345 282.4 66.7012 280 66.7012ZM283.3 56.7012C284.833 56.7012 286.2 56.3345 287.4 55.6012C288.6 54.8678 289.6 53.8012 290.4 52.4012C291.133 51.0012 291.5 49.3678 291.5 47.5012C291.5 45.7012 291.133 44.1012 290.4 42.7012C289.733 41.3678 288.767 40.3012 287.5 39.5012C286.3 38.7012 284.9 38.3011 283.3 38.3011C282.033 38.3011 280.767 38.6012 279.5 39.2012C278.3 39.8012 277.267 40.7678 276.4 42.1012C275.6 43.4345 275.2 45.2012 275.2 47.4012C275.2 49.1345 275.533 50.7012 276.2 52.1012C276.867 53.5012 277.8 54.6345 279 55.5012C280.2 56.3012 281.633 56.7012 283.3 56.7012Z" fill="black"/>
<path d="M331.1 66.7008C326.233 66.7008 321.967 65.6008 318.3 63.4008C314.633 61.2008 311.767 58.1341 309.7 54.2008C307.7 50.2675 306.7 45.6675 306.7 40.4008C306.7 35.3341 307.7 30.7675 309.7 26.7008C311.7 22.6341 314.667 19.4008 318.6 17.0008C322.467 14.5341 327.267 13.3008 333 13.3008C339.2 13.3008 344.333 14.7675 348.4 17.7008C352.467 20.7008 355.133 24.8008 356.4 30.0008H343.5C342.7 28.1341 341.467 26.6675 339.8 25.6008C338.067 24.5341 335.8 24.0008 333 24.0008C330.2 24.0008 327.733 24.6675 325.6 26.0008C323.467 27.2675 321.767 29.1341 320.5 31.6008C319.233 34.0675 318.6 37.0675 318.6 40.6008C318.6 44.0675 319.2 46.9674 320.4 49.3008C321.667 51.6341 323.333 53.4008 325.4 54.6008C327.467 55.8008 329.8 56.4008 332.4 56.4008C336.067 56.4008 338.933 55.6008 341 54.0008C343.067 52.4008 344.5 50.3008 345.3 47.7008H330.3V37.7008H357.3V65.8008H346.6L345.7 60.1008C344.167 62.2341 342.233 63.8675 339.9 65.0008C337.5 66.1341 334.567 66.7008 331.1 66.7008Z" fill="black"/>
<path fill-rule="evenodd" clip-rule="evenodd" d="M379.7 66.7008C376.3 66.7008 373.166 65.9675 370.3 64.5008C367.433 63.0341 365.133 60.9008 363.4 58.1008C361.667 55.2341 360.8 51.7008 360.8 47.5008C360.8 43.3675 361.667 39.8675 363.4 37.0008C365.067 34.1341 367.3 31.9675 370.1 30.5008C372.967 29.0341 376.166 28.3008 379.7 28.3008C383.3 28.3008 386.5 29.0675 389.3 30.6008C392.033 32.0675 394.2 34.2008 395.8 37.0008C397.4 39.8008 398.2 43.1008 398.2 46.9008C398.2 47.4341 398.2 47.9675 398.2 48.5008C398.2 49.1008 398.133 49.7008 398 50.3008H372.2C372.333 52.0341 372.767 53.4341 373.5 54.5008C374.233 55.5008 375.133 56.2341 376.2 56.7008C377.2 57.1675 378.233 57.4008 379.3 57.4008C380.7 57.4008 381.9 57.1008 382.9 56.5008C383.9 55.9008 384.666 55.0008 385.2 53.8008H397.4C396.8 56.1341 395.7 58.2675 394.1 60.2008C392.5 62.2008 390.467 63.7675 388 64.9008C385.6 66.1008 382.833 66.7008 379.7 66.7008ZM372.2 43.9008H386.5C386.5 41.9008 385.833 40.3341 384.5 39.2008C383.167 38.0675 381.5 37.5008 379.5 37.5008C377.567 37.5008 375.933 38.0675 374.6 39.2008C373.333 40.4008 372.533 41.9675 372.2 43.9008Z" fill="black"/>
<path d="M401 65.8008V29.2008H412.4V33.7008C413.733 31.8341 415.3 30.4675 417.1 29.6008C418.9 28.7341 420.933 28.3008 423.2 28.3008C427.8 28.3008 431.267 29.7675 433.6 32.7008C436 35.6341 437.2 39.4341 437.2 44.1008V65.8008H425.9V45.5008C425.9 43.2341 425.333 41.4008 424.2 40.0008C423.067 38.6008 421.367 37.9008 419.1 37.9008C416.9 37.9008 415.233 38.6008 414.1 40.0008C412.967 41.4675 412.4 43.3008 412.4 45.5008V65.8008H401Z" fill="black"/>
<path d="M60 40C60 51 51.1 60 40 60H20V40C20 29 29 20 40 20V0C17.9 0 0 17.9 0 40V80H20H40C62.1 80 80 62.1 80 40H60Z" fill="black"/>
<path d="M60 40V20H40V40H60Z" fill="black"/>
</svg>
